<svg xmlns="http://www.w3.org/2000/svg" width="56" height="57" viewBox="0 0 56 57"><defs><style>.cls-1{fill:#a5a5a5;fill-rule:evenodd}</style></defs><path id="_3ahd.svg" data-name="3ahd.svg" class="cls-1" d="M1247.72 975.177a2.524 2.524 0 0 0-.75-1.713 2.621 2.621 0 0 0-1.9-.745 4.552 4.552 0 0 0-4.42 4.661l.13 4.156-.71 2.842a3.312 3.312 0 0 0-2.37.962l-4.68 4.625-1.62.277a5.248 5.248 0 0 0-2.79 1.424l-3.22 3.184a5.064 5.064 0 0 0-1.52 3.506l-.12 5.274a3.77 3.77 0 0 0-2.61 3.53l-.07 6.91a3.668 3.668 0 0 0 1.08 2.67 3.831 3.831 0 0 0 2.68 1.14l11.6.12h.04a3.785 3.785 0 0 0 2.66-1.08 3.69 3.69 0 0 0 1.15-2.64l.07-6.91a3.677 3.677 0 0 0-1.09-2.67 3.741 3.741 0 0 0-1.4-.9l.02-.16a5.443 5.443 0 0 1 1.57-3.08l5.44-5.375a8.5 8.5 0 0 0 2.47-5.109l.57-5.413a3.067 3.067 0 0 0 .07-.612v-.039c0-.036.01-.07.01-.106zm-9.29 32.173l-.07 6.91a1.876 1.876 0 0 1-.57 1.31 1.97 1.97 0 0 1-1.34.53l-11.6-.12a1.914 1.914 0 0 1-1.32-.56 1.811 1.811 0 0 1-.54-1.33l.07-6.9a1.88 1.88 0 0 1 1.89-1.85h.02l11.6.12a1.881 1.881 0 0 1 1.32.57 1.812 1.812 0 0 1 .54 1.32zm5.1-13.509l-5.44 5.377a7.353 7.353 0 0 0-2.11 4.142l-.03.2-10.27-.11.12-5.051a3.221 3.221 0 0 1 .95-2.205l3.22-3.184a3.34 3.34 0 0 1 1.76-.895l1.92-.329a.806.806 0 0 0 .19-.055c.01 0 .01 0 .02-.006a1.063 1.063 0 0 0 .3-.2h.01l4.89-4.839a1.417 1.417 0 0 1 1.99 0 1.387 1.387 0 0 1 0 1.974l-5.62 5.555a.951.951 0 0 0 0 1.343.977.977 0 0 0 .68.278.943.943 0 0 0 .68-.278l5.62-5.555a3.285 3.285 0 0 0-.49-5.061l.76-3.073a.04.04 0 0 0 .01-.031c0-.033.01-.065.01-.1a.327.327 0 0 0 .01-.1v-.032l-.14-4.286a2.644 2.644 0 0 1 2.55-2.7.655.655 0 0 1 .49.189.664.664 0 0 1 .19.433l.28 8.66-.06.609a.163.163 0 0 0-.01.068l-.57 5.3a6.512 6.512 0 0 1-1.91 3.962zm-7.4 12.749a1.625 1.625 0 1 1-1.64 1.63 1.632 1.632 0 0 1 1.64-1.63zm-19.88-2.96l-.12-5.274a5.068 5.068 0 0 0-1.52-3.506l-3.22-3.183a5.219 5.219 0 0 0-2.78-1.424l-1.63-.278-4.67-4.625a3.364 3.364 0 0 0-2.38-.962l-.71-2.842.14-4.158a4.562 4.562 0 0 0-4.43-4.66 2.622 2.622 0 0 0-1.89.745 2.538 2.538 0 0 0-.76 1.716l-.28 8.736c0 .037.01.073.01.11v.016a3.207 3.207 0 0 0 .06.622l.58 5.41a8.443 8.443 0 0 0 2.47 5.11l5.44 5.377a5.447 5.447 0 0 1 1.57 3.07l.02.17a3.858 3.858 0 0 0-1.41.9 3.717 3.717 0 0 0-1.09 2.67l.08 6.9a3.7 3.7 0 0 0 1.15 2.65 3.785 3.785 0 0 0 2.66 1.08h.04l11.59-.12a3.8 3.8 0 0 0 2.68-1.14 3.693 3.693 0 0 0 1.09-2.67l-.07-6.91a3.779 3.779 0 0 0-2.62-3.53zm-14.33-4.412l-5.44-5.377a6.58 6.58 0 0 1-1.92-3.965l-.56-5.3c0-.023-.01-.045-.01-.068l-.07-.609.28-8.658a.625.625 0 0 1 .2-.436.637.637 0 0 1 .47-.19 2.648 2.648 0 0 1 2.57 2.7l-.14 4.289a.034.034 0 0 0 0 .031v.1c.01.032.01.065.02.1v.032l.77 3.073a3.324 3.324 0 0 0-.5.4 3.272 3.272 0 0 0 0 4.66l5.62 5.555a.98.98 0 0 0 .68.277.959.959 0 0 0 .68-.278.934.934 0 0 0 0-1.343l-5.62-5.555a1.387 1.387 0 0 1 0-1.974 1.431 1.431 0 0 1 2 0l4.89 4.839h.01a.827.827 0 0 0 .3.2s.01 0 .01.007a1.011 1.011 0 0 0 .2.055l1.92.329a3.266 3.266 0 0 1 1.75.894l3.22 3.184a3.19 3.19 0 0 1 .96 2.205l.11 5.051-10.26.11-.03-.2a7.353 7.353 0 0 0-2.11-4.138zm14.56 16.192a1.923 1.923 0 0 1-1.33.57l-11.59.12a1.952 1.952 0 0 1-1.34-.53 1.876 1.876 0 0 1-.57-1.31l-.07-6.91a1.773 1.773 0 0 1 .54-1.32 1.881 1.881 0 0 1 1.32-.57l11.6-.12h.02a1.87 1.87 0 0 1 1.88 1.84l.08 6.91a1.852 1.852 0 0 1-.54 1.32zm-12.6-8.82a1.625 1.625 0 1 1-1.65 1.63 1.639 1.639 0 0 1 1.65-1.63zm3.19-27.555h1.81a11.059 11.059 0 0 0 .93 2.219l-1.28 1.265a1.984 1.984 0 0 0 0 2.828l1.8 1.774a2.016 2.016 0 0 0 1.43.585 2.051 2.051 0 0 0 1.43-.585l1.28-1.264a11.4 11.4 0 0 0 2.24.918v1.786a2.018 2.018 0 0 0 2.03 2h2.53a2.009 2.009 0 0 0 2.02-2v-1.786a11.243 11.243 0 0 0 2.25-.918l1.28 1.264a2.04 2.04 0 0 0 2.86 0l1.79-1.774a1.984 1.984 0 0 0 0-2.828l-1.27-1.265a11.67 11.67 0 0 0 .93-2.219h1.8a2.018 2.018 0 0 0 2.03-2v-2.5a2.019 2.019 0 0 0-2.03-2h-1.8a11.652 11.652 0 0 0-.93-2.22l1.28-1.265a2 2 0 0 0 0-2.828l-1.8-1.774a2.089 2.089 0 0 0-2.86 0l-1.28 1.264a11.184 11.184 0 0 0-2.25-.918V963a2.01 2.01 0 0 0-2.02-2h-2.53a2.018 2.018 0 0 0-2.03 2v1.784a11.344 11.344 0 0 0-2.24.919l-1.28-1.265a2.089 2.089 0 0 0-2.86 0l-1.8 1.774a1.985 1.985 0 0 0 0 2.829l1.28 1.264a11.043 11.043 0 0 0-.93 2.22h-1.81a2.016 2.016 0 0 0-2.02 2v2.5a2.016 2.016 0 0 0 2.02 2.01zm-.1-4.5a.106.106 0 0 1 .11-.1h2.54a.99.99 0 0 0 .29-.049c.01 0 .03-.008.04-.014a1.07 1.07 0 0 0 .25-.132l.03-.032a.763.763 0 0 0 .19-.208c.01-.008.01-.018.02-.027a.876.876 0 0 0 .11-.274s.01-.006.01-.009a9.105 9.105 0 0 1 1.26-3.019.822.822 0 0 0 .07-.143.017.017 0 0 0 .01-.018.8.8 0 0 0 .07-.337v-.021a.954.954 0 0 0-.06-.335.023.023 0 0 1-.01-.022.99.99 0 0 0-.21-.3l-.01-.007-1.79-1.769a.1.1 0 0 1 0-.143l1.8-1.774a.111.111 0 0 1 .14 0l1.8 1.78a.07.07 0 0 0 .01.008.954.954 0 0 0 .28.183c.02.01.05.018.07.026a.983.983 0 0 0 .32.062.934.934 0 0 0 .32-.062c.03-.011.06-.026.09-.04s.07-.027.11-.048a9.446 9.446 0 0 1 3.05-1.25.461.461 0 0 0 .07-.021c.04-.011.07-.021.11-.036s.05-.028.08-.043.05-.029.08-.047a.326.326 0 0 0 .07-.061.346.346 0 0 0 .07-.057l.06-.07c.02-.024.04-.047.06-.073s.03-.05.04-.076a.3.3 0 0 0 .04-.085.336.336 0 0 0 .03-.093l.03-.083a.519.519 0 0 0 .01-.125c0-.019.01-.037.01-.057V963a.092.092 0 0 1 .1-.1h2.53a.1.1 0 0 1 .1.1v2.513c0 .02.01.038.01.058a.524.524 0 0 0 .01.125.252.252 0 0 1 .02.082l.03.093c.01.03.03.057.05.085a.27.27 0 0 0 .04.077l.06.072c.02.024.04.049.06.07s.04.039.06.058.05.042.08.06a.375.375 0 0 0 .08.047c.03.015.05.031.08.043a.94.94 0 0 0 .11.036.461.461 0 0 0 .07.021 9.468 9.468 0 0 1 3.05 1.25.56.56 0 0 0 .11.048c.03.014.06.029.09.04a.934.934 0 0 0 .32.062.957.957 0 0 0 .32-.061.7.7 0 0 1 .07-.027 1.1 1.1 0 0 0 .28-.182l.01-.009 1.8-1.78a.111.111 0 0 1 .14 0l1.8 1.774a.123.123 0 0 1 0 .142l-1.79 1.77h-.01v.007c-.01 0-.01 0-.01.006a.822.822 0 0 0-.2.3c0 .007-.01.015-.01.022a.954.954 0 0 0-.06.335v.02a.983.983 0 0 0 .06.338.017.017 0 0 1 .01.018.88.88 0 0 0 .08.143 9.323 9.323 0 0 1 1.26 3.018v.009a1.23 1.23 0 0 0 .12.274c0 .009.01.019.01.028a.983.983 0 0 0 .19.207c.01.011.03.022.04.032a.845.845 0 0 0 .24.132l.05.014a.924.924 0 0 0 .28.049h2.55a.1.1 0 0 1 .1.1v2.5a.1.1 0 0 1-.1.1h-2.54c-.02 0-.04 0-.06.006a.962.962 0 0 0-.13.012.769.769 0 0 0-.09.027.4.4 0 0 0-.08.025c-.04.015-.07.034-.11.052a.4.4 0 0 1-.06.032c-.03.021-.06.046-.09.071a.25.25 0 0 1-.05.043.421.421 0 0 0-.07.085.249.249 0 0 0-.05.055l-.06.1c-.02.033-.02.039-.03.06-.02.041-.03.084-.05.128 0 .016-.01.031-.01.047a9.135 9.135 0 0 1-1.27 3.019.822.822 0 0 0-.07.143c0 .006-.01.011-.01.018a.978.978 0 0 0-.06.337c0 .007-.01.014-.01.021a.965.965 0 0 0 .07.335.021.021 0 0 0 .01.021.818.818 0 0 0 .2.3l.01.007 1.8 1.771a.122.122 0 0 1 0 .141l-1.8 1.774a.1.1 0 0 1-.14 0l-1.79-1.768s-.01 0-.01-.006a.038.038 0 0 0-.01 0 .9.9 0 0 0-.31-.2.041.041 0 0 0-.02-.007.923.923 0 0 0-.33-.065h-.03a1 1 0 0 0-.34.065.035.035 0 0 1-.02.01 1.033 1.033 0 0 0-.14.072 9.488 9.488 0 0 1-3.05 1.249.22.22 0 0 0-.05.017.8.8 0 0 0-.13.041.375.375 0 0 0-.07.037.475.475 0 0 0-.09.053.343.343 0 0 0-.07.056.329.329 0 0 0-.07.062.308.308 0 0 0-.06.067c-.02.025-.04.049-.06.076a.251.251 0 0 0-.04.073c-.02.03-.03.058-.05.088a.28.28 0 0 0-.02.089l-.03.088a.436.436 0 0 0-.01.114c0 .023-.01.044-.01.067v2.514a.1.1 0 0 1-.1.1h-2.53a.106.106 0 0 1-.11-.1v-2.581c-.01-.038-.01-.077-.02-.114a.268.268 0 0 0-.02-.088l-.03-.089c-.01-.031-.03-.058-.04-.088a.279.279 0 0 1-.04-.073c-.02-.027-.04-.051-.06-.076s-.04-.046-.06-.067-.05-.042-.07-.062a.682.682 0 0 1-.07-.056c-.03-.02-.06-.036-.09-.053a.548.548 0 0 1-.07-.037 1.083 1.083 0 0 0-.13-.041c-.02 0-.03-.013-.05-.017a9.4 9.4 0 0 1-3.05-1.249 1.157 1.157 0 0 0-.15-.074c-.01 0-.01 0-.02-.007a.935.935 0 0 0-.34-.067h-.02a.956.956 0 0 0-.34.066c-.01 0-.01 0-.02.006a1 1 0 0 0-.31.2h-.01v.007l-1.79 1.769a.113.113 0 0 1-.15 0l-1.79-1.774a.1.1 0 0 1 0-.142l1.79-1.77.01-.006v-.006a1 1 0 0 0 .21-.3v-.022a.965.965 0 0 0 .07-.335v.005a.8.8 0 0 0-.07-.337c0-.007-.01-.012-.01-.018a.789.789 0 0 0-.07-.143 9.34 9.34 0 0 1-1.27-3.019c0-.017-.01-.033-.01-.05-.01-.043-.03-.085-.04-.124s-.03-.05-.04-.074-.03-.059-.05-.087-.04-.05-.06-.074-.04-.045-.06-.065-.05-.041-.08-.061a.308.308 0 0 0-.07-.054.422.422 0 0 0-.08-.046c-.03-.013-.05-.028-.08-.039a.965.965 0 0 0-.1-.032c-.03-.007-.05-.016-.08-.021a.816.816 0 0 0-.13-.013c-.02 0-.03-.006-.05-.006h-2.55a.1.1 0 0 1-.1-.1v-2.5zm13.03 8.243a6.992 6.992 0 1 0-7.07-6.992 7.047 7.047 0 0 0 7.07 6.987zm0-12.083a5.092 5.092 0 1 1-5.15 5.091 5.126 5.126 0 0 1 5.15-5.096z" transform="translate(-1192 -961)"/></svg>