<svg xmlns="http://www.w3.org/2000/svg" width="23.031" height="24.125" viewBox="0 0 23.031 24.125"><defs><style>.cls-1{fill:#fff;fill-rule:evenodd}</style></defs><path id="alarm.svg" class="cls-1" d="M324.484 65a3.264 3.264 0 0 1-3.29-3.217h6.58a3.264 3.264 0 0 1-3.29 3.217zm8.226-14.477v6.434h1.645A1.537 1.537 0 0 1 336 58.565a1.538 1.538 0 0 1-1.645 1.609h-19.742a1.538 1.538 0 0 1-1.645-1.609 1.537 1.537 0 0 1 1.645-1.608h1.645v-6.435a8.139 8.139 0 0 1 6.581-7.883v-.16a1.645 1.645 0 0 1 3.29 0v.16a8.139 8.139 0 0 1 6.581 7.883zm-8.226-4.823a4.8 4.8 0 0 0-4.936 4.826v6.434h9.871v-6.438a4.794 4.794 0 0 0-4.935-4.822z" transform="translate(-312.969 -40.875)"/></svg>