<svg xmlns="http://www.w3.org/2000/svg" width="95" height="69" viewBox="0 0 95 69"><defs><style>.cls-1{fill:#d6d6d6;fill-rule:evenodd;opacity:.25}</style></defs><path id="amana-apps-bg.svg" class="cls-1" d="M899.167 2030.87h88.671v-3.13H952.2a3.988 3.988 0 0 1-3.155 1.56h-12.668a3.986 3.986 0 0 1-3.154-1.56h-34.056v3.13zm82.337-58.02a1.575 1.575 0 0 0-1.583-1.57h-72.837a1.575 1.575 0 0 0-1.583 1.57v47.04a1.575 1.575 0 0 0 1.583 1.57h72.837a1.575 1.575 0 0 0 1.583-1.57v-47.04zm-83 51.75h.668v-53.32a6.315 6.315 0 0 1 6.328-6.28h76a6.316 6.316 0 0 1 6.334 6.28v53.32h.668a2.489 2.489 0 0 1 2.5 2.47v4.46a2.491 2.491 0 0 1-2.5 2.48H898.5a2.491 2.491 0 0 1-2.5-2.48v-4.46a2.489 2.489 0 0 1 2.5-2.47zm21.6-27.24l6.334 7.83a1.576 1.576 0 0 0 1.236.59 1.575 1.575 0 0 0 1.235-2.55l-5.542-6.85 5.544-6.87a1.565 1.565 0 0 0-.25-2.21 1.591 1.591 0 0 0-2.225.25l-6.334 7.85a1.559 1.559 0 0 0 0 1.96zm13.9 8.42h3.167a1.57 1.57 0 1 0 0-3.14H934a1.57 1.57 0 1 0 0 3.14zm9.5 0h3.167a1.57 1.57 0 1 0 0-3.14H943.5a1.57 1.57 0 1 0 0 3.14zm7.917-7.84a1.584 1.584 0 0 0 3.167 0v-9.41a1.584 1.584 0 0 0-3.167 0v9.41zm1.584 7.84a1.57 1.57 0 1 0-1.584-1.57 1.574 1.574 0 0 0 1.584 1.57zm5.343-.35a1.548 1.548 0 0 0 .99.35 1.581 1.581 0 0 0 1.237-.59l6.333-7.83a1.558 1.558 0 0 0 0-1.96l-6.334-7.85a1.593 1.593 0 0 0-2.226-.25 1.565 1.565 0 0 0-.248 2.21l5.543 6.87-5.542 6.85a1.551 1.551 0 0 0 .245 2.2zm19.991 12.9h-69.67v-43.92h69.67v43.92z" transform="translate(-896 -1965)"/></svg>