<svg xmlns="http://www.w3.org/2000/svg" width="50" height="66.031" viewBox="0 0 50 66.031"><defs><style>.cls-1{fill:#a5a5a5;fill-rule:evenodd}</style></defs><path id="enquiry.svg" class="cls-1" d="M274.667 959.964a3.927 3.927 0 0 0-3.91 3.908v5.464h2.38v-5.464a1.523 1.523 0 0 1 1.53-1.571h25.482v4.337a4.411 4.411 0 0 0 .474 1.877 3.89 3.89 0 0 0 3.487 2h4.747v19.471l-18.109 11.579-17.611-11.265v-18.608h-2.38v11.276l-4.18 2.58a1.163 1.163 0 0 0-.553.986v1.178a1.12 1.12 0 0 0 0 .337.017.017 0 0 0 0 .01l-.01 2.154v34.617a1.177 1.177 0 0 0 1.185 1.17 1.2 1.2 0 0 0 .772-.27l7.969-6.57h36.487a3.548 3.548 0 0 0 3.57-3.48v-13.64h-2.38v13.64a1.135 1.135 0 0 1-1.19 1.14H275.5a1.2 1.2 0 0 0-.767.28l-6.346 5.23v-32.281l21.713 13.891a1.224 1.224 0 0 0 1.3 0l22.209-14.206v10.003h2.38v-9.5c.012-1.242-.006-2.473-.018-3.693a1.164 1.164 0 0 0-.432-.89l-4.3-3.461v-12.852a1.158 1.158 0 0 0-.339-.817l-8.164-8.2a1.2 1.2 0 0 0-.851-.356h-27.218zm27.862 4l4.259 4.209h-2.678a1.178 1.178 0 0 1-1.362-.707 2.2 2.2 0 0 1-.219-.827v-2.675zm-12.629 3.012v17.074h2.38v-17.074h-2.38zm21.335 18.216l2.26 1.821-2.26 1.443v-3.264zm-40.48.525v3.063l-2.358-1.507v-.1zm19.052 1.068v3.565h2.38v-3.565h-2.38z" transform="translate(-266 -959.969)"/></svg>