<svg xmlns="http://www.w3.org/2000/svg" width="21" height="21" viewBox="0 0 21 21"><defs><style>.cls-1{fill:#a5a5a5;fill-rule:evenodd}</style></defs><path id="gate.svg" class="cls-1" d="M1267.49 120a2.767 2.767 0 0 0-1.47.561s-.01.006-.01.008l-7.53 4.368a.061.061 0 0 0-.01.007 3.014 3.014 0 0 0-1.21 1.079 3.139 3.139 0 0 0-.26 1.56V140.3a.725.725 0 0 0 .7.7h6.53a.725.725 0 0 0 .7-.7v-6.964a.737.737 0 0 1 .76-.736h3.62a.737.737 0 0 1 .76.736v6.964a.725.725 0 0 0 .7.7h6.53a.725.725 0 0 0 .7-.7v-12.717a3.139 3.139 0 0 0-.26-1.56 3.014 3.014 0 0 0-1.21-1.079.061.061 0 0 0-.01-.007l-7.53-4.368s-.01-.006-.01-.008a2.767 2.767 0 0 0-1.47-.561h-.02zm.01 1.407a3.344 3.344 0 0 1 .77.358c.01 0 .01 0 .01.007l7.53 4.368.01.007a2.084 2.084 0 0 1 .69.54 2.4 2.4 0 0 1 .09.9V139.6h-5.13v-6.264a2.163 2.163 0 0 0-2.16-2.136h-3.62a2.163 2.163 0 0 0-2.16 2.136v6.264h-5.13v-12.017a2.4 2.4 0 0 1 .09-.9 2.1 2.1 0 0 1 .69-.54l.01-.007 7.53-4.368s0-.005.01-.007a3.344 3.344 0 0 1 .77-.358z" transform="translate(-1257 -120)"/></svg>