<svg xmlns="http://www.w3.org/2000/svg" width="66.969" height="60.001" viewBox="0 0 66.969 60.001"><defs><style>.cls-1{fill:#a5a5a5;fill-rule:evenodd}</style></defs><path id="hr.svg" class="cls-1" d="M928.482 986.9a12.47 12.47 0 1 0-12.322-12.469 12.4 12.4 0 0 0 12.322 12.469zm0-23.379a10.911 10.911 0 1 1-10.782 10.91 10.879 10.879 0 0 1 10.782-10.914zm30.135 33.679h-4.353v-.474a3.369 3.369 0 0 0-3.349-3.389h-7.5a7.455 7.455 0 0 0-6.7-4h-16.738a7.547 7.547 0 0 0-7.2 5.489l-6.027 21.686h-7.132a4.645 4.645 0 0 0-4.621 4.67v.78h63.619a3.362 3.362 0 0 0 3.348-3.38v-17.93a3.369 3.369 0 0 0-3.281-3.453h-.067zm-5.793-.474v.474h-4.252a3.368 3.368 0 0 0-3.349 3.384v.28h-7.132v1.52h6.931v4.4h-6.931v1.53h6.931v4.2h-6.931v1.53h6.931v4.4a3.406 3.406 0 0 0 .67 1.93h-9.208a1.891 1.891 0 0 1-1.306-1.79v-21.862a1.921 1.921 0 0 1 1.909-1.932h13.895a1.923 1.923 0 0 1 1.775 1.932h.067zm-24.342.508l2.544 3.66a1.023 1.023 0 0 1 0 1.32l-2.243 2.14a.285.285 0 0 1-.368 0l-2.277-2.17a1.023 1.023 0 0 1 0-1.32zm0-2.711l-1.541-1.558 1.541-1.525 1.64 1.66-1.64 1.559v-.136zm-14.13.678a6.005 6.005 0 0 1 5.725-4.4h6.9l-1.206 1.22a1.538 1.538 0 0 0-.012 2.156l.012.012 1.742 1.762-2.746 4.068a2.565 2.565 0 0 0 .335 3.39l2.143 2.16a1.742 1.742 0 0 0 2.478 0l2.109-2.23a2.565 2.565 0 0 0 .335-3.39l-2.813-4.066 1.741-1.761a1.537 1.537 0 0 0 .012-2.157l-.012-.012-1.2-1.22h6.9a5.938 5.938 0 0 1 4.755 2.44h-4.688a3.368 3.368 0 0 0-3.348 3.388v19.818h-13.905v-10.16a1.336 1.336 0 0 0-2.612-.34l-2.578 10.64h-6.027zm3.75 21.343h-2.11l2.11-8.57v8.57zm-18.483 1.53H933.5v.51a3.442 3.442 0 0 0 .6 1.83h-37.5a3.079 3.079 0 0 1 3.019-2.344zm60.839.51a1.923 1.923 0 0 1-1.908 1.93h-9.978a1.924 1.924 0 0 1-1.909-1.93v-17.93a1.92 1.92 0 0 1 1.909-1.862h10.045a1.92 1.92 0 0 1 1.908 1.932v17.92zm-10.815-13.76h7.7v1.52h-7.7v-1.52zm0 4.03h7.7v1.53h-7.7v-1.53zm0 3.76h7.7v1.53h-7.7v-1.53z" transform="translate(-895 -961.969)"/></svg>