<svg xmlns="http://www.w3.org/2000/svg" width="22" height="22" viewBox="0 0 22 22"><defs><style>.cls-1{fill-rule:evenodd;fill:url(#linear-gradient)}</style><linearGradient id="linear-gradient" x1="1278" y1="360.908" x2="1256" y2="343.092" gradientUnits="userSpaceOnUse"><stop offset="0" stop-color="#9e9e9e"/><stop offset="1" stop-color="#948f8f"/></linearGradient></defs><path id="link.svg" class="cls-1" d="M1276.78 343.19l-.98-.978a4.15 4.15 0 0 0-5.87 0l-3.42 3.425.97.978 3.43-3.425a2.83 2.83 0 0 1 3.91 0l.98.979a2.759 2.759 0 0 1 .81 1.957 2.72 2.72 0 0 1-.81 1.957l-5.38 5.382a2.828 2.828 0 0 1-3.91 0l-.98-.978-.98.978.98.979a4.149 4.149 0 0 0 5.87 0l5.38-5.383a4.143 4.143 0 0 0 0-5.871zm-13.7 17.615a2.826 2.826 0 0 1-3.91 0l-.98-.978a2.761 2.761 0 0 1-.81-1.957 2.722 2.722 0 0 1 .81-1.958l5.38-5.382a2.766 2.766 0 0 1 3.91 0l.98.978.98-.978-.98-.979a4.155 4.155 0 0 0-5.87 0l-5.38 5.382a4.147 4.147 0 0 0-1.22 2.937 4.1 4.1 0 0 0 1.22 2.935l.98.979a4.15 4.15 0 0 0 5.87 0l3.42-3.425-.97-.979z" transform="translate(-1256 -341)"/></svg>