<svg xmlns="http://www.w3.org/2000/svg" width="36" height="27.69" viewBox="0 0 36 27.69"><defs><style>.cls-1{fill:#fff;fill-rule:evenodd}</style></defs><path id="news-title.svg" class="cls-1" d="M1250.06 2213.37a3.846 3.846 0 0 0-2.4 1.38v-6.01h2.4v4.63zm-8.75 3.41v-1.27h-11.89v1.27h11.89zm1.51 9.3h-5.6a2.1 2.1 0 0 1 .1.51 1.955 1.955 0 1 1-3.91 0 2.1 2.1 0 0 1 .1-.51h-12.84v-17.34h2.39v14.89h15.33zm-6.03.51a1.447 1.447 0 0 0-.1-.51h-2.66a1.711 1.711 0 0 0-.1.51 1.43 1.43 0 1 0 2.86 0zm13.68-23.77h-30.46v4.4h30.46v-4.4zm-3.25 14.69a3.606 3.606 0 1 0 3.6-3.69 3.643 3.643 0 0 0-3.6 3.69zm6.33 4.53h-4.91a2.3 2.3 0 0 0-1.86 1.04l-7.14-3.95a2.1 2.1 0 0 0-2.93.57 2.195 2.195 0 0 0 1.14 2.82l7.64 4.22a2.739 2.739 0 0 0 .69.25v3.52h9.82v-5.66a2.652 2.652 0 0 0-2.45-2.81zm-10.64-7.65v-1.26h-15.68v1.26h15.68z" transform="translate(-1220 -2202.81)"/></svg>