<svg xmlns="http://www.w3.org/2000/svg" width="26.281" height="30.938" viewBox="0 0 26.281 30.938"><defs><style>.cls-1{fill:#fff;fill-rule:evenodd}</style></defs><path id="pray-fixed.svg" class="cls-1" d="M24.481 235.012a.637.637 0 0 0-.389.133 3.778 3.778 0 0 0 1.014 6.567l.02 1.7c-2.845 1.432-9.143 6.224-9.291 10.8a8.25 8.25 0 0 0 1.5 4.954l16.328.034a7.4 7.4 0 0 0 1.375-4.98c-.42-4.356-6.168-9.668-8.68-10.83v-1.441a3.746 3.746 0 0 0 3-1.511.628.628 0 1 0-1-.756 2.51 2.51 0 1 1-3.511-3.528.631.631 0 0 0-.367-1.138zm-10.727 25.149a1.448 1.448 0 0 0 0 2.9h23.392a1.448 1.448 0 0 0 0-2.9H13.754zm.481 3.861a1.927 1.927 0 0 0-1.924 1.93h26.278a1.927 1.927 0 0 0-1.924-1.93h-22.43zm-.329-25.094a.482.482 0 0 1-.481.483.482.482 0 0 1-.481-.483.482.482 0 0 1 .481-.482.482.482 0 0 1 .481.482zm7.215 1.931a.482.482 0 0 1-.481.482.482.482 0 0 1-.481-.482.482.482 0 0 1 .481-.483.482.482 0 0 1 .481.483zm-6.253 6.756a.482.482 0 0 1-.481.482.482.482 0 0 1-.481-.482.482.482 0 0 1 .481-.483.482.482 0 0 1 .481.483zm17.8-3.861a.482.482 0 0 1-.481.483.482.482 0 0 1-.481-.483.482.482 0 0 1 .481-.482.482.482 0 0 1 .481.482zm4.329-3.378a.482.482 0 0 1-.481.483.483.483 0 0 1-.481-.483.483.483 0 0 1 .481-.483.482.482 0 0 1 .481.483zm-3.367-2.9a.482.482 0 0 1-.481.482.482.482 0 0 1-.481-.482.482.482 0 0 1 .479-.476.482.482 0 0 1 .481.483zm2.879 7.23a.483.483 0 0 0-.474.491v1.917a.481.481 0 1 0 .962.013V245.2a.483.483 0 0 0-.473-.491h-.017zm-.949.966a.483.483 0 0 0-.013.965h1.923a.483.483 0 0 0 .013-.965h-1.925zm-18.772-3.861a.482.482 0 0 0-.474.49v1.917a.481.481 0 1 0 .962.014v-1.931a.482.482 0 0 0-.473-.49h-.018zm-.949.965a.483.483 0 0 0-.012.965h1.923a.483.483 0 0 0 .012-.965h-1.926z" transform="translate(-12.313 -235)"/></svg>