<svg xmlns="http://www.w3.org/2000/svg" width="31" height="27" viewBox="0 0 31 27"><defs><style>.cls-1{fill:#a5a5a5;fill-rule:evenodd}</style></defs><path id="requests.svg" class="cls-1" d="M707.317 305a2.319 2.319 0 0 0-2.317 2.3v22.409a2.317 2.317 0 0 0 2.317 2.291h26.366a2.317 2.317 0 0 0 2.317-2.294V307.3a2.319 2.319 0 0 0-2.317-2.3h-26.366zm0 1.5h26.366a.781.781 0 0 1 .8.794v22.409a.781.781 0 0 1-.8.794h-26.366a.782.782 0 0 1-.8-.794V307.3a.782.782 0 0 1 .8-.8zm14.3 3a.754.754 0 0 0-.757.75v4.5a.754.754 0 0 0 .757.75h9.083a.754.754 0 0 0 .757-.75v-4.5a.754.754 0 0 0-.757-.75h-9.081zM709.54 311v1.5h8.3V311h-8.3zm12.839 0h7.567v3h-7.567v-3zm-.757 6a.754.754 0 0 0-.757.75v4.5a.754.754 0 0 0 .757.75h9.078a.754.754 0 0 0 .757-.75v-4.5a.754.754 0 0 0-.757-.75h-9.081zm-12.082 1.5v1.5h8.3v-1.5h-8.3zm12.839 0h7.567v3h-7.567v-3zM709.54 326v1.5h21.766V326H709.54z" transform="translate(-705 -305)"/></svg>