<svg xmlns="http://www.w3.org/2000/svg" width="40" height="27" viewBox="0 0 40 27"><defs><style>.cls-1{fill:#a5a5a5;fill-rule:evenodd}</style></defs><path id="services.svg" class="cls-1" d="M1246.83 305H1236v24.065a1.715 1.715 0 0 1-.55 1.245 2.009 2.009 0 0 1-2.65 0 1.677 1.677 0 0 1-.55-1.245v-21.717h2.5v-1.174H1231v22.891a2.8 2.8 0 0 0 .92 2.075 3.2 3.2 0 0 0 2.2.86h33.75a3.2 3.2 0 0 0 2.21-.86 2.833 2.833 0 0 0 .92-2.075v-20.543h-19.17zm22.92 24.065a1.713 1.713 0 0 1-.55 1.245 1.91 1.91 0 0 1-1.33.516h-31.25l.06-.079c.04-.052.07-.107.11-.16a3.471 3.471 0 0 0 .17-.3 1.279 1.279 0 0 0 .08-.178c.04-.112.08-.227.11-.344.01-.055.03-.109.04-.165a2.356 2.356 0 0 0 .06-.531v-22.895h9.17l5 3.522h18.33v19.369zm-17.5-22.891H1271v1.174h-18.75v-1.174zm-13.75 2.348h7.5v1.178h-7.5v-1.174zm0 2.347h3.75v1.174h-3.75v-1.174zm10.04 3.257l-1.57 1.479 1.11 1.737a5.564 5.564 0 0 0-.61 1.383l-2.1.49v2.091l2.1.492a5.542 5.542 0 0 0 .61 1.382l-1.11 1.737 1.57 1.478 1.85-1.042a6.6 6.6 0 0 0 1.47.575l.53 1.963h2.22l.53-1.964a6.6 6.6 0 0 0 1.47-.575l1.85 1.042 1.57-1.478-1.11-1.738a5.558 5.558 0 0 0 .61-1.382l2.09-.49v-2.091l-2.09-.491a5.542 5.542 0 0 0-.61-1.382l1.11-1.738-1.57-1.478-1.85 1.043a6.488 6.488 0 0 0-1.48-.574l-.52-1.965h-2.22l-.53 1.965a6.6 6.6 0 0 0-1.47.574zm2.2 2.219a5.128 5.128 0 0 1 1.76-.686l.39-.073.47-1.782h.28l.47 1.782.39.073a5.108 5.108 0 0 1 1.76.686l.33.2 1.67-.946.2.182-1.01 1.576.22.309a4.489 4.489 0 0 1 .73 1.652l.08.363 1.89.446v.257l-1.89.445-.08.364a4.515 4.515 0 0 1-.73 1.653l-.22.309 1.01 1.575-.2.183-1.67-.946-.33.206a5.208 5.208 0 0 1-1.76.686l-.39.074-.47 1.779h-.28l-.47-1.781-.39-.074a5.108 5.108 0 0 1-1.76-.686l-.33-.2-1.67.945-.2-.182 1.01-1.576-.22-.309a4.5 4.5 0 0 1-.73-1.652l-.08-.363-1.9-.445v-.257l1.9-.445.08-.363a4.508 4.508 0 0 1 .73-1.653l.22-.309-1.01-1.576.2-.182 1.67.946zm2.76 7.437a3.528 3.528 0 1 0-3.75-3.521 3.643 3.643 0 0 0 3.75 3.521zm0-5.869a2.353 2.353 0 1 1-2.5 2.348 2.429 2.429 0 0 1 2.5-2.348zm-.63 1.761h1.25v1.174h-1.25v-1.174z" transform="translate(-1231 -305)"/></svg>