<svg xmlns="http://www.w3.org/2000/svg" width="34" height="25" viewBox="0 0 34 25"><defs><style>.cls-1{fill:#fff;fill-rule:evenodd}</style></defs><path id="support-fixed.svg" class="cls-1" d="M30.457 147.573h-2.266a1.773 1.773 0 1 1-1.593-2.555 1.825 1.825 0 0 1 1.522.863h2.69a6.37 6.37 0 0 1 3.965-4.139 10.1 10.1 0 1 0-3.894 8.422 6.4 6.4 0 0 1-.46-2.34.706.706 0 0 0 .036-.251zm-5.771-17.312a11.873 11.873 0 0 1 11.612 9.79 3.5 3.5 0 0 0-.991 1.476 6.479 6.479 0 0 1 1.487-.18 6.19 6.19 0 0 1 4.638 2.087v-.934a3.145 3.145 0 0 0-2.974-3.167 13.99 13.99 0 0 0-27.472 0 3.121 3.121 0 0 0-2.974 3.167v2.015a3.151 3.151 0 1 0 6.3 0V142.5a3.266 3.266 0 0 0-1.133-2.447 11.733 11.733 0 0 1 11.507-9.792zm12.072 12.093A5.327 5.327 0 1 0 42 147.681a5.272 5.272 0 0 0-5.242-5.327zm-.727 4.615h1.688v4.281h-1.688v-4.281zm.844-2.594a.876.876 0 1 1-.844.875.86.86 0 0 1 .844-.875z" transform="translate(-8 -128)"/></svg>