<svg xmlns="http://www.w3.org/2000/svg" width="54" height="57" viewBox="0 0 54 57"><defs><style>.cls-1{fill:#a5a5a5;fill-rule:evenodd}</style></defs><path id="support.svg" class="cls-1" d="M627 996.34a9.841 9.841 0 0 0-3.427-7.5v-.6a25.986 25.986 0 0 0-6.254-16.5c-4.209-4.98-9.681-7.74-15.333-7.74h-3.908c-12.387 0-21.587 12.78-21.587 24.24v.54a9.914 9.914 0 0 0 3.367 16.98 6.042 6.042 0 0 0 11.485-2.58v-13.32a6.024 6.024 0 0 0-6.013-6 5.946 5.946 0 0 0-5.231 3.06 10.859 10.859 0 0 0-1.263.48c.421-10.02 8.659-21.12 19.242-21.12h3.908c10.523 0 18.821 11.1 19.3 21.06a10.2 10.2 0 0 0-1.623-.6 6.146 6.146 0 0 0-5.172-2.94 6.024 6.024 0 0 0-6.013 6v13.38a6.008 6.008 0 0 0 5.051 5.94v3a4.281 4.281 0 0 1-4.269 4.26h-4.269c-.662-1.38-2.526-2.34-4.811-2.34-2.826 0-5.051 1.56-5.051 3.48 0 1.98 2.225 3.48 5.051 3.48 2.285 0 4.149-.96 4.811-2.34h4.269a6.562 6.562 0 0 0 6.554-6.54v-3.06a6.141 6.141 0 0 0 4.089-3.18 9.994 9.994 0 0 0 7.097-9.54zm-41.67-10.26a3.743 3.743 0 0 1 3.728 3.72v13.38a3.728 3.728 0 0 1-7.456 0v-13.32a3.681 3.681 0 0 1 3.726-3.78zm-6.073 3.78v13.2a7.673 7.673 0 0 1 0-13.44v.24zm20.865 28.86c-1.744 0-2.766-.78-2.766-1.2s1.082-1.2 2.766-1.2c1.744 0 2.766.78 2.766 1.2.058.42-1.024 1.2-2.768 1.2zm14.371-11.76a3.743 3.743 0 0 1-3.728-3.72v-13.38a3.728 3.728 0 0 1 7.456 0v13.38a3.742 3.742 0 0 1-3.73 3.72zm6.013-3.78V989.5a7.662 7.662 0 0 1-.006 13.68z" transform="translate(-573 -964)"/></svg>