<svg xmlns="http://www.w3.org/2000/svg" width="110" height="79" viewBox="0 0 110 79"><defs><style>.cls-1{fill:#d6d6d6;fill-rule:evenodd;opacity:.25}</style></defs><path id="tech-support-bg.svg" class="cls-1" d="M117.648 2020.84h-7.333a5.712 5.712 0 0 1-5.156 3.29 5.68 5.68 0 1 1 0-11.36 5.94 5.94 0 0 1 4.927 2.72h8.707a20.364 20.364 0 0 1 12.833-13.07c-1.031-16.71-15.239-29.89-32.654-29.89-17.988 0-32.54 14.09-32.54 31.6s14.551 31.6 32.54 31.6a32.927 32.927 0 0 0 20.051-6.71 19.745 19.745 0 0 1-1.49-7.39 2.184 2.184 0 0 0 .115-.79zm-18.676-54.68a38.171 38.171 0 0 1 37.581 30.92 11.02 11.02 0 0 0-3.208 4.66 21.511 21.511 0 0 1 4.812-.57 20.248 20.248 0 0 1 15.009 6.59v-2.95a10.034 10.034 0 0 0-9.624-10 45.5 45.5 0 0 0-88.911 0 9.955 9.955 0 0 0-9.624 10v6.36a10.2 10.2 0 0 0 20.395 0v-6.36a10.216 10.216 0 0 0-3.666-7.73 37.71 37.71 0 0 1 37.236-30.92zm39.07 38.19A16.826 16.826 0 1 0 155 2021.18a16.859 16.859 0 0 0-16.958-16.83zm-2.327 14.53h5.51v13.59h-5.51v-13.59zm2.755-8.14a2.75 2.75 0 1 1-2.755 2.75 2.751 2.751 0 0 1 2.755-2.75z" transform="translate(-45 -1959)"/></svg>