<svg xmlns="http://www.w3.org/2000/svg" width="35" height="26" viewBox="0 0 35 26"><defs><style>.cls-1{fill:#fff;fill-rule:evenodd}</style></defs><path id="weather-fixed.svg" class="cls-1" d="M38.609 198.688a3.455 3.455 0 0 0 .122-.912 3.533 3.533 0 0 0-5.522-2.873 7.489 7.489 0 0 0-10.056-3.189 5.447 5.447 0 1 0-5.442 7.818 4.85 4.85 0 0 0-.51 6.529v.218h.179A5 5 0 0 0 21.166 208c.1 0 .19-.01.263-.013h14.446a.057.057 0 0 1 .02 0 .059.059 0 0 1 .02 0h.228v-.008a5.018 5.018 0 0 0 2.466-9.291zm-2.661 7.617h-14.6l-.107.006a.652.652 0 0 1-.075.006 3.281 3.281 0 0 1-3.292-3.25 3.238 3.238 0 0 1 2.029-3l1-.413-.065-1.071-.008-.126c-.005-.077-.012-.15-.012-.217a5.763 5.763 0 0 1 10.944-2.439l.819 1.691 1.5-1.148a1.832 1.832 0 0 1 2.947 1.427 1.765 1.765 0 0 1-.083.538l-.36 1.138 1.039.61a3.323 3.323 0 0 1 1.676 2.893 3.4 3.4 0 0 1-3.352 3.355zM17.2 182h2.137v3.7H17.2V182zM6 193.053h3.75v2.11H6v-2.11zm6.99-5.608l-1.51 1.492-2.653-2.618 1.51-1.491zm-2.655 16l-1.51-1.492 2.654-2.619 1.511 1.492zm17.4-17.171l-2.656 2.626-1.511-1.5 2.653-2.618z" transform="translate(-6 -182)"/></svg>