<svg xmlns="http://www.w3.org/2000/svg" width="220" height="181" viewBox="0 0 220 181"><defs><style>.cls-1{fill-rule:evenodd;opacity:.66;fill:url(#linear-gradient)}</style><linearGradient id="linear-gradient" x1="996" y1="1256.576" x2="776" y2="1078.424" gradientUnits="userSpaceOnUse"><stop offset="1" stop-color="#3eee5f"/><stop offset="0" stop-color="#00bb54"/></linearGradient></defs><path id="dots.svg" class="cls-1" d="M840.023 1076.99a2.345 2.345 0 0 0-2.537 2.56 2.512 2.512 0 0 0 2.537 2.56 2.56 2.56 0 0 0 0-5.12zm-30.75 0a2.513 2.513 0 0 0-2.536 2.56 2.536 2.536 0 1 0 2.536-2.56zm10.144 0a2.56 2.56 0 0 0 0 5.12 2.513 2.513 0 0 0 2.536-2.56 2.74 2.74 0 0 0-2.536-2.56zm10.144 0a2.56 2.56 0 0 0 0 5.12 2.344 2.344 0 0 0 2.536-2.56 2.513 2.513 0 0 0-2.536-2.56zm10.462 10.55a2.514 2.514 0 0 0-2.537 2.56 2.557 2.557 0 1 0 5.073 0 2.512 2.512 0 0 0-2.536-2.56zm-30.75 0a2.56 2.56 0 0 0 0 5.12 2.74 2.74 0 0 0 2.536-2.56 2.512 2.512 0 0 0-2.536-2.56zm10.144 0a2.74 2.74 0 0 0-2.536 2.56 2.536 2.536 0 1 0 2.536-2.56zm10.144 0a2.513 2.513 0 0 0-2.536 2.56 2.344 2.344 0 0 0 2.536 2.56 2.513 2.513 0 0 0 2.536-2.56 2.344 2.344 0 0 0-2.536-2.56zm20.606 0a2.513 2.513 0 0 0-2.536 2.56 2.74 2.74 0 0 0 2.536 2.56 2.56 2.56 0 0 0 0-5.12zm10.144 0a2.56 2.56 0 0 0 0 5.12 2.56 2.56 0 0 0 0-5.12zm-20.288 10.24a2.345 2.345 0 0 0-2.537 2.56 2.5 2.5 0 0 0 2.537 2.55 2.555 2.555 0 0 0 0-5.11zm-41.211 0a2.555 2.555 0 0 0 0 5.11 2.555 2.555 0 0 0 0-5.11zm10.461 0a2.513 2.513 0 0 0-2.536 2.56 2.731 2.731 0 0 0 2.536 2.55 2.555 2.555 0 0 0 0-5.11zm10.144 0a2.555 2.555 0 0 0 0 5.11 2.337 2.337 0 0 0 2.536-2.55 2.512 2.512 0 0 0-2.536-2.56zm10.144 0a2.555 2.555 0 0 0 0 5.11 2.555 2.555 0 0 0 0-5.11zm20.606 0a2.513 2.513 0 0 0-2.536 2.56 2.731 2.731 0 0 0 2.536 2.55 2.555 2.555 0 0 0 0-5.11zm10.144 0a2.555 2.555 0 0 0 0 5.11 2.555 2.555 0 0 0 0-5.11zm10.461 0a2.513 2.513 0 0 0-2.536 2.56 2.731 2.731 0 0 0 2.536 2.55 2.337 2.337 0 0 0 2.536-2.55 2.512 2.512 0 0 0-2.536-2.56zm-30.749 10.23a2.514 2.514 0 0 0-2.537 2.56 2.74 2.74 0 0 0 2.537 2.56 2.56 2.56 0 0 0 0-5.12zm-61.5.32a2.513 2.513 0 0 0-2.536 2.56 2.536 2.536 0 1 0 5.072 0 2.512 2.512 0 0 0-2.536-2.56zm10.144 0a2.56 2.56 0 0 0 0 5.12 2.56 2.56 0 0 0 0-5.12zm10.144 0a2.56 2.56 0 1 0 2.536 2.56 2.344 2.344 0 0 0-2.536-2.56zm10.461 0a2.513 2.513 0 0 0-2.536 2.56 2.536 2.536 0 1 0 5.072 0 2.512 2.512 0 0 0-2.536-2.56zm10.144 0a2.56 2.56 0 0 0 0 5.12 2.56 2.56 0 0 0 0-5.12zm10.144 0a2.56 2.56 0 1 0 2.536 2.56 2.344 2.344 0 0 0-2.536-2.56zm20.606 0a2.513 2.513 0 0 0-2.536 2.56 2.536 2.536 0 1 0 5.072 0 2.512 2.512 0 0 0-2.536-2.56zm10.144 0a2.56 2.56 0 0 0 0 5.12 2.513 2.513 0 0 0 2.536-2.56 2.344 2.344 0 0 0-2.536-2.56zm10.461 0a2.513 2.513 0 0 0-2.536 2.56 2.74 2.74 0 0 0 2.536 2.56 2.56 2.56 0 0 0 0-5.12zm10.144 0a2.56 2.56 0 1 0 2.536 2.56 2.344 2.344 0 0 0-2.536-2.56zm10.144 0a2.513 2.513 0 0 0-2.536 2.56 2.536 2.536 0 1 0 5.072 0c.317-1.6-.951-2.56-2.536-2.56zm10.461 0a2.56 2.56 0 0 0 0 5.12 2.56 2.56 0 0 0 0-5.12zm-61.5 9.92a2.342 2.342 0 0 0-2.537 2.55 2.537 2.537 0 1 0 2.537-2.55zm-61.5 0a2.511 2.511 0 0 0-2.536 2.55 2.536 2.536 0 1 0 2.536-2.55zm10.144 0a2.555 2.555 0 0 0 0 5.11 2.513 2.513 0 0 0 2.536-2.56 2.739 2.739 0 0 0-2.536-2.55zm10.144 0a2.555 2.555 0 1 0 2.536 2.55 2.511 2.511 0 0 0-2.536-2.55zm10.461 0a2.511 2.511 0 0 0-2.536 2.55 2.536 2.536 0 1 0 2.536-2.55zm10.144 0a2.555 2.555 0 0 0 0 5.11 2.513 2.513 0 0 0 2.536-2.56 2.739 2.739 0 0 0-2.536-2.55zm10.144 0a2.555 2.555 0 1 0 2.536 2.55 2.511 2.511 0 0 0-2.536-2.55zm20.606 0a2.511 2.511 0 0 0-2.536 2.55 2.536 2.536 0 1 0 2.536-2.55zm10.144 0a2.555 2.555 0 0 0 0 5.11 2.555 2.555 0 0 0 0-5.11zm10.461 0a2.511 2.511 0 0 0-2.536 2.55 2.74 2.74 0 0 0 2.536 2.56 2.513 2.513 0 0 0 2.536-2.56 2.739 2.739 0 0 0-2.536-2.55zm10.144 0a2.555 2.555 0 1 0 2.536 2.55 2.511 2.511 0 0 0-2.536-2.55zm10.144 0a2.511 2.511 0 0 0-2.536 2.55 2.536 2.536 0 1 0 5.072 0c.317-1.27-.951-2.55-2.536-2.55zm10.461 0a2.555 2.555 0 0 0 0 5.11 2.514 2.514 0 0 0 2.537-2.56 2.74 2.74 0 0 0-2.537-2.55zm10.145 0a2.511 2.511 0 0 0-2.536 2.55 2.74 2.74 0 0 0 2.536 2.56 2.513 2.513 0 0 0 2.536-2.56 2.739 2.739 0 0 0-2.536-2.55zm10.144 0a2.555 2.555 0 1 0 2.536 2.55 2.511 2.511 0 0 0-2.536-2.55zm-81.787 10.55a2.56 2.56 0 0 0 0 5.12 2.74 2.74 0 0 0 2.536-2.56 2.512 2.512 0 0 0-2.536-2.56zm-61.5 0a2.56 2.56 0 0 0 0 5.12 2.56 2.56 0 0 0 0-5.12zm10.144 0a2.74 2.74 0 0 0-2.536 2.56 2.536 2.536 0 1 0 5.072 0 2.74 2.74 0 0 0-2.536-2.56zm10.144 0a2.513 2.513 0 0 0-2.536 2.56 2.344 2.344 0 0 0 2.536 2.56 2.56 2.56 0 0 0 0-5.12zm10.461 0a2.56 2.56 0 0 0 0 5.12 2.56 2.56 0 0 0 0-5.12zm10.144 0a2.74 2.74 0 0 0-2.536 2.56 2.536 2.536 0 1 0 5.072 0 2.74 2.74 0 0 0-2.536-2.56zm10.144 0a2.513 2.513 0 0 0-2.536 2.56 2.344 2.344 0 0 0 2.536 2.56 2.56 2.56 0 0 0 0-5.12zm20.606 0a2.56 2.56 0 0 0 0 5.12 2.56 2.56 0 0 0 0-5.12zm10.144 0a2.74 2.74 0 0 0-2.536 2.56 2.536 2.536 0 1 0 2.536-2.56zm10.461 0a2.56 2.56 0 1 0 2.536 2.56 2.74 2.74 0 0 0-2.536-2.56zm10.144 0a2.513 2.513 0 0 0-2.536 2.56 2.344 2.344 0 0 0 2.536 2.56 2.56 2.56 0 0 0 0-5.12zm10.144 0a2.56 2.56 0 0 0 0 5.12 2.74 2.74 0 0 0 2.536-2.56c.317-1.28-.951-2.56-2.536-2.56zm10.461 0a2.74 2.74 0 0 0-2.536 2.56 2.537 2.537 0 1 0 5.073 0 2.741 2.741 0 0 0-2.537-2.56zm10.145 0a2.56 2.56 0 1 0 2.536 2.56 2.74 2.74 0 0 0-2.536-2.56zm10.144 0a2.513 2.513 0 0 0-2.536 2.56 2.344 2.344 0 0 0 2.536 2.56 2.56 2.56 0 0 0 0-5.12zm10.461 0a2.56 2.56 0 0 0 0 5.12 2.74 2.74 0 0 0 2.536-2.56c-.317-1.28-1.268-2.56-2.536-2.56zm-92.248 10.23a2.345 2.345 0 0 0-2.537 2.56 2.512 2.512 0 0 0 2.537 2.56 2.56 2.56 0 0 0 0-5.12zm-51.355 0a2.56 2.56 0 1 0 2.536 2.56 2.74 2.74 0 0 0-2.536-2.56zm10.144 0a2.56 2.56 0 0 0 0 5.12 2.56 2.56 0 0 0 0-5.12zm10.461 0a2.344 2.344 0 0 0-2.536 2.56 2.512 2.512 0 0 0 2.536 2.56 2.56 2.56 0 0 0 0-5.12zm10.144 0a2.56 2.56 0 1 0 2.536 2.56 2.74 2.74 0 0 0-2.536-2.56zm10.144 0a2.56 2.56 0 0 0 0 5.12 2.56 2.56 0 0 0 0-5.12zm20.606 0a2.513 2.513 0 0 0-2.536 2.56 2.74 2.74 0 0 0 2.536 2.56 2.56 2.56 0 0 0 0-5.12zm10.144 0a2.56 2.56 0 0 0 0 5.12 2.56 2.56 0 0 0 0-5.12zm10.461 0a2.513 2.513 0 0 0-2.536 2.56 2.74 2.74 0 0 0 2.536 2.56 2.344 2.344 0 0 0 2.536-2.56 2.512 2.512 0 0 0-2.536-2.56zm10.144 0a2.56 2.56 0 0 0 0 5.12 2.56 2.56 0 0 0 0-5.12zm10.144 0a2.513 2.513 0 0 0-2.536 2.56 2.74 2.74 0 0 0 2.536 2.56 2.512 2.512 0 0 0 2.536-2.56 2.344 2.344 0 0 0-2.536-2.56zm10.461 0a2.56 2.56 0 0 0 0 5.12 2.345 2.345 0 0 0 2.537-2.56 2.512 2.512 0 0 0-2.537-2.56zm10.145 0a2.513 2.513 0 0 0-2.536 2.56 2.74 2.74 0 0 0 2.536 2.56 2.344 2.344 0 0 0 2.536-2.56 2.512 2.512 0 0 0-2.536-2.56zm10.144 0a2.56 2.56 0 0 0 0 5.12 2.56 2.56 0 0 0 0-5.12zm10.461 0a2.513 2.513 0 0 0-2.536 2.56 2.74 2.74 0 0 0 2.536 2.56 2.56 2.56 0 0 0 0-5.12zm10.144 0a2.56 2.56 0 0 0 0 5.12 2.344 2.344 0 0 0 2.536-2.56 2.512 2.512 0 0 0-2.536-2.56zm-102.392 10.56a2.56 2.56 0 0 0 0 5.12 2.513 2.513 0 0 0 2.536-2.56 2.74 2.74 0 0 0-2.536-2.56zm-41.211 0a2.344 2.344 0 0 0-2.536 2.56 2.536 2.536 0 1 0 5.072 0 2.344 2.344 0 0 0-2.536-2.56zm10.461 0a2.344 2.344 0 0 0-2.536 2.56 2.536 2.536 0 1 0 5.072 0 2.512 2.512 0 0 0-2.536-2.56zm10.144 0a2.512 2.512 0 0 0-2.536 2.56 2.74 2.74 0 0 0 2.536 2.56 2.56 2.56 0 0 0 0-5.12zm10.144 0a2.344 2.344 0 0 0-2.536 2.56 2.536 2.536 0 1 0 5.072 0 2.344 2.344 0 0 0-2.536-2.56zm20.606 0a2.513 2.513 0 0 0-2.536 2.56 2.536 2.536 0 1 0 2.536-2.56zm10.144 0a2.56 2.56 0 0 0 0 5.12 2.56 2.56 0 0 0 0-5.12zm10.461 0a2.513 2.513 0 0 0-2.536 2.56 2.74 2.74 0 0 0 2.536 2.56 2.513 2.513 0 0 0 2.536-2.56 2.74 2.74 0 0 0-2.536-2.56zm10.144 0a2.56 2.56 0 1 0 2.536 2.56 2.513 2.513 0 0 0-2.536-2.56zm10.144 0a2.513 2.513 0 0 0-2.536 2.56 2.536 2.536 0 1 0 5.072 0c.317-1.28-.951-2.56-2.536-2.56zm10.461 0a2.56 2.56 0 0 0 0 5.12 2.514 2.514 0 0 0 2.537-2.56 2.741 2.741 0 0 0-2.537-2.56zm10.145 0a2.513 2.513 0 0 0-2.536 2.56 2.74 2.74 0 0 0 2.536 2.56 2.513 2.513 0 0 0 2.536-2.56 2.74 2.74 0 0 0-2.536-2.56zm10.144 0a2.56 2.56 0 1 0 2.536 2.56 2.513 2.513 0 0 0-2.536-2.56zm10.461 0a2.513 2.513 0 0 0-2.536 2.56 2.536 2.536 0 1 0 5.072 0c-.317-1.28-1.268-2.56-2.536-2.56zm10.144 0a2.56 2.56 0 0 0 0 5.12 2.513 2.513 0 0 0 2.536-2.56 2.74 2.74 0 0 0-2.536-2.56zm-102.392 10.23a2.514 2.514 0 0 0-2.537 2.56 2.537 2.537 0 1 0 5.073 0 2.512 2.512 0 0 0-2.536-2.56zm-41.211 0a2.6 2.6 0 0 0-2.536 2.88 2.536 2.536 0 1 0 5.072 0 2.6 2.6 0 0 0-2.536-2.88zm10.461 0a2.6 2.6 0 0 0-2.536 2.88 2.536 2.536 0 1 0 5.072 0 2.811 2.811 0 0 0-2.536-2.88zm10.144 0a2.811 2.811 0 0 0-2.536 2.88 2.74 2.74 0 0 0 2.536 2.56 2.513 2.513 0 0 0 2.536-2.56 2.811 2.811 0 0 0-2.536-2.88zm10.144 0a2.6 2.6 0 0 0-2.536 2.88 2.536 2.536 0 1 0 5.072 0 2.6 2.6 0 0 0-2.536-2.88zm20.606 0a2.513 2.513 0 0 0-2.536 2.56 2.536 2.536 0 1 0 2.536-2.56zm10.144 0a2.56 2.56 0 0 0 0 5.12 2.56 2.56 0 0 0 0-5.12zm10.461 0a2.513 2.513 0 0 0-2.536 2.56 2.74 2.74 0 0 0 2.536 2.56 2.513 2.513 0 0 0 2.536-2.56 2.74 2.74 0 0 0-2.536-2.56zm10.144 0a2.56 2.56 0 1 0 2.536 2.56 2.513 2.513 0 0 0-2.536-2.56zm10.144 0a2.513 2.513 0 0 0-2.536 2.56 2.536 2.536 0 1 0 5.072 0c.317-1.28-.951-2.56-2.536-2.56zm10.461 0a2.56 2.56 0 0 0 0 5.12 2.514 2.514 0 0 0 2.537-2.56 2.741 2.741 0 0 0-2.537-2.56zm10.145 0a2.513 2.513 0 0 0-2.536 2.56 2.74 2.74 0 0 0 2.536 2.56 2.513 2.513 0 0 0 2.536-2.56 2.74 2.74 0 0 0-2.536-2.56zm10.144 0a2.56 2.56 0 1 0 2.536 2.56 2.513 2.513 0 0 0-2.536-2.56zm10.461 0a2.513 2.513 0 0 0-2.536 2.56 2.536 2.536 0 1 0 5.072 0c-.317-1.28-1.268-2.56-2.536-2.56zm10.144 0a2.56 2.56 0 0 0 0 5.12 2.513 2.513 0 0 0 2.536-2.56 2.74 2.74 0 0 0-2.536-2.56zm-102.392 10.24a2.56 2.56 0 1 0 2.536 2.56 2.74 2.74 0 0 0-2.536-2.56zm-30.75.32a2.344 2.344 0 0 0-2.536 2.56 2.536 2.536 0 1 0 2.536-2.56zm10.144 0a2.56 2.56 0 0 0 0 5.12 2.344 2.344 0 0 0 2.536-2.56 2.512 2.512 0 0 0-2.536-2.56zm10.144 0a2.56 2.56 0 1 0 2.536 2.56 2.344 2.344 0 0 0-2.536-2.56zm20.606 0a2.344 2.344 0 0 0-2.536 2.56 2.536 2.536 0 1 0 2.536-2.56zm10.144 0a2.56 2.56 0 0 0 0 5.12 2.56 2.56 0 0 0 0-5.12zm10.461 0a2.344 2.344 0 0 0-2.536 2.56 2.512 2.512 0 0 0 2.536 2.56 2.344 2.344 0 0 0 2.536-2.56 2.512 2.512 0 0 0-2.536-2.56zm10.144 0a2.56 2.56 0 1 0 2.536 2.56 2.344 2.344 0 0 0-2.536-2.56zm10.144 0a2.344 2.344 0 0 0-2.536 2.56 2.536 2.536 0 1 0 5.072 0 2.344 2.344 0 0 0-2.536-2.56zm10.461 0a2.56 2.56 0 0 0 0 5.12 2.345 2.345 0 0 0 2.537-2.56 2.512 2.512 0 0 0-2.537-2.56zm10.145 0a2.344 2.344 0 0 0-2.536 2.56 2.512 2.512 0 0 0 2.536 2.56 2.344 2.344 0 0 0 2.536-2.56 2.512 2.512 0 0 0-2.536-2.56zm10.144 0a2.56 2.56 0 1 0 2.536 2.56 2.344 2.344 0 0 0-2.536-2.56zm10.461 0a2.344 2.344 0 0 0-2.536 2.56 2.536 2.536 0 1 0 2.536-2.56zm10.144 0a2.56 2.56 0 0 0 0 5.12 2.344 2.344 0 0 0 2.536-2.56 2.512 2.512 0 0 0-2.536-2.56zm10.144 0a2.56 2.56 0 1 0 2.536 2.56 2.344 2.344 0 0 0-2.536-2.56zm-112.536 10.23a2.345 2.345 0 0 0-2.537 2.56 2.537 2.537 0 1 0 2.537-2.56zm122.68 0a2.56 2.56 0 0 0 0 5.12 2.56 2.56 0 0 0 0-5.12zm10.462 0a2.345 2.345 0 0 0-2.537 2.56 2.512 2.512 0 0 0 2.537 2.56 2.56 2.56 0 0 0 0-5.12zm-153.748 0a2.56 2.56 0 0 0 0 5.12 2.344 2.344 0 0 0 2.536-2.56 2.512 2.512 0 0 0-2.536-2.56zm10.144 0a2.56 2.56 0 1 0 2.536 2.56 2.344 2.344 0 0 0-2.536-2.56zm20.606 0a2.344 2.344 0 0 0-2.536 2.56 2.536 2.536 0 1 0 2.536-2.56zm10.144 0a2.56 2.56 0 0 0 0 5.12 2.56 2.56 0 0 0 0-5.12zm10.461 0a2.344 2.344 0 0 0-2.536 2.56 2.512 2.512 0 0 0 2.536 2.56 2.344 2.344 0 0 0 2.536-2.56 2.512 2.512 0 0 0-2.536-2.56zm10.144 0a2.56 2.56 0 1 0 2.536 2.56 2.344 2.344 0 0 0-2.536-2.56zm10.144 0a2.344 2.344 0 0 0-2.536 2.56 2.536 2.536 0 1 0 5.072 0c.317-1.6-.951-2.56-2.536-2.56zm10.461 0a2.56 2.56 0 0 0 0 5.12 2.345 2.345 0 0 0 2.537-2.56 2.512 2.512 0 0 0-2.537-2.56zm10.145 0a2.344 2.344 0 0 0-2.536 2.56 2.512 2.512 0 0 0 2.536 2.56 2.344 2.344 0 0 0 2.536-2.56 2.512 2.512 0 0 0-2.536-2.56zm10.144 0a2.56 2.56 0 1 0 2.536 2.56 2.344 2.344 0 0 0-2.536-2.56zm10.461 0a2.344 2.344 0 0 0-2.536 2.56 2.536 2.536 0 1 0 5.072 0c-.317-1.6-1.268-2.56-2.536-2.56zm10.144 0a2.56 2.56 0 0 0 0 5.12 2.344 2.344 0 0 0 2.536-2.56 2.512 2.512 0 0 0-2.536-2.56zm10.144 0a2.56 2.56 0 1 0 2.536 2.56 2.344 2.344 0 0 0-2.536-2.56zm-112.536 10.24a2.514 2.514 0 0 0-2.537 2.56 2.537 2.537 0 1 0 2.537-2.56zm122.68 0a2.555 2.555 0 1 0 2.536 2.56 2.513 2.513 0 0 0-2.536-2.56zm10.462 0a2.514 2.514 0 0 0-2.537 2.56 2.537 2.537 0 1 0 2.537-2.56zm10.144 0a2.555 2.555 0 0 0 0 5.11 2.511 2.511 0 0 0 2.536-2.55 2.74 2.74 0 0 0-2.536-2.56zm10.144 0a2.555 2.555 0 1 0 2.536 2.56 2.513 2.513 0 0 0-2.536-2.56zm-174.036 0a2.555 2.555 0 0 0 0 5.11 2.511 2.511 0 0 0 2.536-2.55 2.74 2.74 0 0 0-2.536-2.56zm10.144 0a2.555 2.555 0 1 0 2.536 2.56 2.513 2.513 0 0 0-2.536-2.56zm20.606 0a2.513 2.513 0 0 0-2.536 2.56 2.536 2.536 0 1 0 2.536-2.56zm10.144 0a2.555 2.555 0 0 0 0 5.11 2.555 2.555 0 0 0 0-5.11zm10.461 0a2.513 2.513 0 0 0-2.536 2.56 2.739 2.739 0 0 0 2.536 2.55 2.511 2.511 0 0 0 2.536-2.55 2.74 2.74 0 0 0-2.536-2.56zm10.144 0a2.555 2.555 0 1 0 2.536 2.56 2.513 2.513 0 0 0-2.536-2.56zm10.144 0a2.513 2.513 0 0 0-2.536 2.56 2.536 2.536 0 1 0 5.072 0c.317-1.28-.951-2.56-2.536-2.56zm10.461 0a2.555 2.555 0 0 0 0 5.11 2.511 2.511 0 0 0 2.537-2.55 2.741 2.741 0 0 0-2.537-2.56zm10.145 0a2.513 2.513 0 0 0-2.536 2.56 2.739 2.739 0 0 0 2.536 2.55 2.511 2.511 0 0 0 2.536-2.55 2.74 2.74 0 0 0-2.536-2.56zm10.144 0a2.555 2.555 0 1 0 2.536 2.56 2.513 2.513 0 0 0-2.536-2.56zm10.461 0a2.513 2.513 0 0 0-2.536 2.56 2.536 2.536 0 1 0 5.072 0c-.317-1.28-1.268-2.56-2.536-2.56zm10.144 0a2.555 2.555 0 0 0 0 5.11 2.511 2.511 0 0 0 2.536-2.55 2.74 2.74 0 0 0-2.536-2.56zm10.144 0a2.555 2.555 0 1 0 2.536 2.56 2.513 2.513 0 0 0-2.536-2.56zm-112.536 10.23a2.514 2.514 0 0 0-2.537 2.56 2.537 2.537 0 1 0 2.537-2.56zm122.68 0a2.56 2.56 0 1 0 2.536 2.56 2.513 2.513 0 0 0-2.536-2.56zm10.462 0a2.514 2.514 0 0 0-2.537 2.56 2.537 2.537 0 1 0 2.537-2.56zm10.144 0a2.56 2.56 0 0 0 0 5.12 2.513 2.513 0 0 0 2.536-2.56 2.74 2.74 0 0 0-2.536-2.56zm10.144 0a2.56 2.56 0 1 0 2.536 2.56 2.513 2.513 0 0 0-2.536-2.56zm-163.892 0a2.513 2.513 0 0 0-2.536 2.56 2.344 2.344 0 0 0 2.536 2.56 2.56 2.56 0 0 0 0-5.12zm20.606 0a2.56 2.56 0 0 0 0 5.12 2.56 2.56 0 0 0 0-5.12zm10.144 0a2.74 2.74 0 0 0-2.536 2.56 2.536 2.536 0 1 0 2.536-2.56zm10.461 0a2.56 2.56 0 1 0 2.536 2.56 2.74 2.74 0 0 0-2.536-2.56zm10.144 0a2.513 2.513 0 0 0-2.536 2.56 2.344 2.344 0 0 0 2.536 2.56 2.56 2.56 0 0 0 0-5.12zm10.144 0a2.56 2.56 0 0 0 0 5.12 2.74 2.74 0 0 0 2.536-2.56c.317-1.28-.951-2.56-2.536-2.56zm10.461 0a2.74 2.74 0 0 0-2.536 2.56 2.537 2.537 0 1 0 5.073 0 2.741 2.741 0 0 0-2.537-2.56zm10.145 0a2.56 2.56 0 1 0 2.536 2.56 2.74 2.74 0 0 0-2.536-2.56zm10.144 0a2.513 2.513 0 0 0-2.536 2.56 2.344 2.344 0 0 0 2.536 2.56 2.56 2.56 0 0 0 0-5.12zm10.461 0a2.56 2.56 0 0 0 0 5.12 2.74 2.74 0 0 0 2.536-2.56c-.317-1.28-1.268-2.56-2.536-2.56zm10.144 0a2.74 2.74 0 0 0-2.536 2.56 2.536 2.536 0 1 0 5.072 0 2.74 2.74 0 0 0-2.536-2.56zm10.144 0a2.513 2.513 0 0 0-2.536 2.56 2.344 2.344 0 0 0 2.536 2.56 2.56 2.56 0 0 0 0-5.12zm-112.536 10.24a2.342 2.342 0 0 0-2.537 2.55 2.537 2.537 0 1 0 2.537-2.55zm122.68 0a2.555 2.555 0 1 0 2.536 2.55 2.341 2.341 0 0 0-2.536-2.55zm10.462 0a2.342 2.342 0 0 0-2.537 2.55 2.512 2.512 0 0 0 2.537 2.56 2.555 2.555 0 0 0 0-5.11zm10.144 0a2.555 2.555 0 1 0 2.536 2.55 2.739 2.739 0 0 0-2.536-2.55zm10.144 0a2.555 2.555 0 0 0 0 5.11 2.555 2.555 0 0 0 0-5.11zm-163.892.32a2.555 2.555 0 0 0 0 5.11 2.513 2.513 0 0 0 2.536-2.56 2.341 2.341 0 0 0-2.536-2.55zm20.606 0a2.341 2.341 0 0 0-2.536 2.55 2.512 2.512 0 0 0 2.536 2.56 2.74 2.74 0 0 0 2.536-2.56 2.509 2.509 0 0 0-2.536-2.55zm10.144 0a2.555 2.555 0 1 0 2.536 2.55 2.341 2.341 0 0 0-2.536-2.55zm10.461 0a2.341 2.341 0 0 0-2.536 2.55 2.536 2.536 0 1 0 2.536-2.55zm10.144 0a2.555 2.555 0 0 0 0 5.11 2.513 2.513 0 0 0 2.536-2.56 2.341 2.341 0 0 0-2.536-2.55zm10.144 0a2.341 2.341 0 0 0-2.536 2.55 2.512 2.512 0 0 0 2.536 2.56 2.74 2.74 0 0 0 2.536-2.56c.317-1.59-.951-2.55-2.536-2.55zm10.461 0a2.555 2.555 0 1 0 2.537 2.55 2.509 2.509 0 0 0-2.537-2.55zm10.145 0a2.341 2.341 0 0 0-2.536 2.55 2.536 2.536 0 1 0 2.536-2.55zm10.144 0a2.555 2.555 0 0 0 0 5.11 2.513 2.513 0 0 0 2.536-2.56 2.341 2.341 0 0 0-2.536-2.55zm10.461 0a2.341 2.341 0 0 0-2.536 2.55 2.512 2.512 0 0 0 2.536 2.56 2.74 2.74 0 0 0 2.536-2.56c-.317-1.59-1.268-2.55-2.536-2.55zm10.144 0a2.555 2.555 0 1 0 2.536 2.55 2.509 2.509 0 0 0-2.536-2.55zm10.144 0a2.555 2.555 0 0 0 0 5.11 2.513 2.513 0 0 0 2.536-2.56 2.341 2.341 0 0 0-2.536-2.55zm-112.536 10.23a2.345 2.345 0 0 0-2.537 2.56 2.512 2.512 0 0 0 2.537 2.56 2.56 2.56 0 0 0 0-5.12zm122.68 0a2.56 2.56 0 0 0 0 5.12 2.56 2.56 0 0 0 0-5.12zm10.462 0a2.514 2.514 0 0 0-2.537 2.56 2.741 2.741 0 0 0 2.537 2.56 2.56 2.56 0 0 0 0-5.12zm10.144 0a2.56 2.56 0 0 0 0 5.12 2.344 2.344 0 0 0 2.536-2.56 2.512 2.512 0 0 0-2.536-2.56zm-133.142 0a2.344 2.344 0 0 0-2.536 2.56 2.512 2.512 0 0 0 2.536 2.56 2.56 2.56 0 0 0 0-5.12zm10.144 0a2.56 2.56 0 1 0 2.536 2.56 2.512 2.512 0 0 0-2.536-2.56zm10.461 0a2.344 2.344 0 0 0-2.536 2.56 2.536 2.536 0 1 0 5.072 0 2.74 2.74 0 0 0-2.536-2.56zm10.144 0a2.56 2.56 0 0 0 0 5.12 2.56 2.56 0 0 0 0-5.12zm10.144 0a2.344 2.344 0 0 0-2.536 2.56 2.512 2.512 0 0 0 2.536 2.56 2.74 2.74 0 0 0 2.536-2.56 2.513 2.513 0 0 0-2.536-2.56zm10.461 0a2.56 2.56 0 1 0 2.537 2.56 2.741 2.741 0 0 0-2.537-2.56zm10.145 0a2.344 2.344 0 0 0-2.536 2.56 2.536 2.536 0 1 0 5.072 0 2.74 2.74 0 0 0-2.536-2.56zm10.144 0a2.56 2.56 0 0 0 0 5.12 2.56 2.56 0 0 0 0-5.12zm10.461 0a2.344 2.344 0 0 0-2.536 2.56 2.512 2.512 0 0 0 2.536 2.56 2.56 2.56 0 0 0 0-5.12zm10.144 0a2.56 2.56 0 1 0 2.536 2.56 2.74 2.74 0 0 0-2.536-2.56zm10.144 0a2.56 2.56 0 0 0 0 5.12 2.56 2.56 0 0 0 0-5.12zm-102.387 10.23a2.56 2.56 0 0 0 0 5.12 2.56 2.56 0 0 0 0-5.12zm10.144 0a2.74 2.74 0 0 0-2.536 2.56 2.536 2.536 0 1 0 2.536-2.56zm10.461 0a2.56 2.56 0 1 0 2.536 2.56 2.74 2.74 0 0 0-2.536-2.56zm10.144 0a2.513 2.513 0 0 0-2.536 2.56 2.344 2.344 0 0 0 2.536 2.56 2.56 2.56 0 0 0 0-5.12zm10.144 0a2.56 2.56 0 0 0 0 5.12 2.74 2.74 0 0 0 2.536-2.56c.317-1.28-.951-2.56-2.536-2.56zm10.461 0a2.74 2.74 0 0 0-2.536 2.56 2.537 2.537 0 1 0 5.073 0 2.741 2.741 0 0 0-2.537-2.56zm10.145 0a2.56 2.56 0 1 0 2.536 2.56 2.74 2.74 0 0 0-2.536-2.56zm10.144 0a2.513 2.513 0 0 0-2.536 2.56 2.344 2.344 0 0 0 2.536 2.56 2.56 2.56 0 0 0 0-5.12zm10.461 0a2.56 2.56 0 0 0 0 5.12 2.74 2.74 0 0 0 2.536-2.56c-.317-1.28-1.268-2.56-2.536-2.56zm10.144 0a2.74 2.74 0 0 0-2.536 2.56 2.536 2.536 0 1 0 5.072 0 2.74 2.74 0 0 0-2.536-2.56zm10.144 0a2.513 2.513 0 0 0-2.536 2.56 2.344 2.344 0 0 0 2.536 2.56 2.56 2.56 0 0 0 0-5.12zm-102.392 10.24a2.56 2.56 0 0 0 0 5.12 2.56 2.56 0 0 0 0-5.12zm10.144 0a2.74 2.74 0 0 0-2.536 2.56 2.536 2.536 0 1 0 2.536-2.56zm10.461 0a2.56 2.56 0 1 0 2.536 2.56 2.74 2.74 0 0 0-2.536-2.56zm10.144 0a2.513 2.513 0 0 0-2.536 2.56 2.344 2.344 0 0 0 2.536 2.56 2.56 2.56 0 0 0 0-5.12zm10.144 0a2.56 2.56 0 0 0 0 5.12 2.74 2.74 0 0 0 2.536-2.56c.317-1.28-.951-2.56-2.536-2.56zm10.461 0a2.74 2.74 0 0 0-2.536 2.56 2.537 2.537 0 1 0 5.073 0 2.741 2.741 0 0 0-2.537-2.56zm10.145 0a2.56 2.56 0 1 0 2.536 2.56 2.74 2.74 0 0 0-2.536-2.56zm-51.355 10.55a2.56 2.56 0 0 0 0 5.12 2.56 2.56 0 0 0 0-5.12zm51.355 0a2.344 2.344 0 0 0-2.536 2.56 2.512 2.512 0 0 0 2.536 2.56 2.344 2.344 0 0 0 2.536-2.56 2.512 2.512 0 0 0-2.536-2.56z" transform="translate(-776 -1077)"/></svg>